<?xml version="1.0" encoding="UTF-8"?>
<svg xmlns="http://www.w3.org/2000/svg" xmlns:xlink="http://www.w3.org/1999/xlink" width="24px" height="24px" viewBox="0 0 24 24" version="1.1">
<g id="surface1">
<path style=" stroke:none;fill-rule:nonzero;fill:rgb(10.196078%,9.803922%,9.411765%);fill-opacity:1;" d="M 11.980469 0 C 5.664062 0 0.492188 4.855469 0 11.027344 L 6.441406 13.683594 C 6.988281 13.3125 7.648438 13.09375 8.359375 13.09375 C 8.421875 13.09375 8.484375 13.097656 8.546875 13.101562 L 11.414062 8.957031 L 11.414062 8.898438 C 11.414062 6.40625 13.445312 4.378906 15.945312 4.378906 C 18.445312 4.378906 20.480469 6.40625 20.480469 8.898438 C 20.480469 11.390625 18.445312 13.421875 15.945312 13.421875 C 15.910156 13.421875 15.878906 13.421875 15.84375 13.421875 L 11.757812 16.328125 C 11.757812 16.382812 11.761719 16.4375 11.761719 16.488281 C 11.761719 18.359375 10.234375 19.882812 8.359375 19.882812 C 6.710938 19.882812 5.332031 18.710938 5.023438 17.15625 L 0.414062 15.257812 C 1.839844 20.289062 6.476562 23.980469 11.980469 23.980469 C 18.617188 23.980469 24 18.613281 24 11.988281 C 24 5.367188 18.617188 0 11.980469 0 Z M 7.53125 18.191406 L 6.054688 17.585938 C 6.316406 18.128906 6.769531 18.582031 7.371094 18.832031 C 8.671875 19.371094 10.167969 18.757812 10.710938 17.460938 C 10.972656 16.832031 10.972656 16.140625 10.714844 15.511719 C 10.457031 14.882812 9.964844 14.390625 9.335938 14.128906 C 8.710938 13.871094 8.042969 13.878906 7.453125 14.101562 L 8.980469 14.730469 C 9.9375 15.128906 10.390625 16.226562 9.992188 17.183594 C 9.59375 18.140625 8.492188 18.589844 7.53125 18.191406 Z M 18.964844 8.898438 C 18.964844 7.238281 17.609375 5.886719 15.945312 5.886719 C 14.28125 5.886719 12.925781 7.238281 12.925781 8.898438 C 12.925781 10.5625 14.28125 11.914062 15.945312 11.914062 C 17.609375 11.914062 18.964844 10.5625 18.964844 8.898438 Z M 13.683594 8.894531 C 13.683594 7.644531 14.699219 6.632812 15.949219 6.632812 C 17.203125 6.632812 18.21875 7.644531 18.21875 8.894531 C 18.21875 10.144531 17.203125 11.15625 15.949219 11.15625 C 14.699219 11.15625 13.683594 10.144531 13.683594 8.894531 Z M 13.683594 8.894531 "/>
</g>
</svg>
